# xmcd CD database file
#
# Track frame offsets:
#	150
#	25412
#	49087
#	67760
#	88045
#	110167
#	127985
#	149252
#	165855
#	190780
#
# Disc length: 2786 seconds
#
# Revision: 0
# Processed by: cddbd v1.5PL3 Copyright (c) Steve Scherf et al.
# Submitted via: CDex 1.51
#
DISCID=7f0ae00a
DTITLE=河合その子 - Rouge et Blue
DYEAR=1987
DGENRE=Pop
TTITLE0=ジェシーの悲劇
TTITLE1=サイレント　リベンジ
TTITLE2=乾いた地図
TTITLE3=哀愁のカルナバル
TTITLE4=雨の木
TTITLE5=シャングリラの夏
TTITLE6=赤道を越えたサマセットモーム
TTITLE7=泣き虫たちのトゥシューズ
TTITLE8=ときめき
TTITLE9=ロマンスの行方
EXTD=YEAR: 1987
EXTT0=
EXTT1=
EXTT2=
EXTT3=
EXTT4=
EXTT5=
EXTT6=
EXTT7=
EXTT8=
EXTT9=
PLAYORDER=
